<svg xmlns="http://www.w3.org/2000/svg" viewBox="0 0 100 100" width="100" height="100">
  <!-- Waves at bottom -->
  <path d="M5 75 Q 12 70, 19 75 T 33 75 T 47 75 T 61 75 T 75 75 T 89 75 T 95 75" 
        stroke="#4a4a4a" stroke-width="4" fill="none" stroke-linecap="round"/>
  
  <!-- Surfboard -->
  <ellipse cx="50" cy="55" rx="3" ry="20" fill="#5fb3b3" stroke="#4a4a4a" stroke-width="3"/>
  
  <!-- Surfer body -->
  <circle cx="48" cy="35" r="4" fill="none" stroke="#4a4a4a" stroke-width="3"/>
  
  <!-- Surfer arms -->
  <path d="M44 38 Q 40 35, 38 32" stroke="#4a4a4a" stroke-width="3" fill="none" stroke-linecap="round"/>
  <path d="M52 38 Q 56 35, 58 32" stroke="#4a4a4a" stroke-width="3" fill="none" stroke-linecap="round"/>
  
  <!-- Surfer body/torso -->
  <line x1="48" y1="39" x2="48" y2="48" stroke="#4a4a4a" stroke-width="3" stroke-linecap="round"/>
  
  <!-- Surfer legs -->
  <path d="M46 48 Q 42 52, 44 55" stroke="#4a4a4a" stroke-width="3" fill="none" stroke-linecap="round"/>
  <path d="M50 48 Q 54 52, 56 55" stroke="#4a4a4a" stroke-width="3" fill="none" stroke-linecap="round"/>
  
  <!-- Wave splash -->
  <path d="M62 58 Q 68 54, 72 58 Q 76 62, 80 58" 
        stroke="#4a4a4a" stroke-width="3" fill="none" stroke-linecap="round"/>
  <path d="M25 62 Q 30 58, 35 62" 
        stroke="#4a4a4a" stroke-width="3" fill="none" stroke-linecap="round"/>
</svg>